<svg width="441" height="80" viewBox="0 0 441 80" fill="none" xmlns="http://www.w3.org/2000/svg">
<g clip-path="url(#clip0_517_711)">
<path d="M440.084 17.9251C440.346 17.9251 440.558 18.1346 440.558 18.393V22.0834C440.558 22.3418 440.346 22.5514 440.084 22.5514H426.987C426.726 22.5514 426.514 22.7609 426.514 23.0193V61.5608C426.514 61.8193 426.301 62.0288 426.04 62.0288H421.213C420.952 62.0288 420.74 61.8193 420.74 61.5608V23.0193C420.74 22.7609 420.528 22.5514 420.266 22.5514H407.169C406.908 22.5514 406.696 22.3418 406.696 22.0834V18.393C406.696 18.1346 406.908 17.9251 407.169 17.9251H440.084Z" fill="black"/>
<path d="M402.097 17.9251C402.359 17.9251 402.571 18.1346 402.571 18.393V61.5608C402.571 61.8193 402.359 62.0288 402.097 62.0288H397.271C397.009 62.0288 396.797 61.8193 396.797 61.5608V18.393C396.797 18.1346 397.009 17.9251 397.271 17.9251H402.097Z" fill="black"/>
<path d="M146.434 17.9251C146.695 17.9251 146.908 18.1346 146.908 18.393V56.9345C146.908 57.193 147.119 57.4025 147.381 57.4025H160.706C160.968 57.4025 161.18 57.612 161.18 57.8705V61.5608C161.18 61.8193 160.968 62.0288 160.706 62.0288H141.607C141.346 62.0288 141.134 61.8193 141.134 61.5608V18.393C141.134 18.1346 141.346 17.9251 141.607 17.9251H146.434Z" fill="black"/>
<path d="M170.764 17.9251C171.026 17.9251 171.238 18.1346 171.238 18.393V56.9345C171.238 57.193 171.45 57.4025 171.711 57.4025H185.037C185.298 57.4025 185.51 57.612 185.51 57.8705V61.5608C185.51 61.8193 185.298 62.0288 185.037 62.0288H165.938C165.676 62.0288 165.464 61.8193 165.464 61.5608V18.393C165.464 18.1346 165.676 17.9251 165.938 17.9251H170.764Z" fill="black"/>
<path d="M98.5885 61.7381C98.5156 61.9139 98.3425 62.0288 98.1502 62.0288H93.1913C92.8521 62.0288 92.6229 61.6866 92.7554 61.378L111.297 18.2102C111.372 18.0373 111.543 17.9251 111.733 17.9251H117.505C117.695 17.9251 117.866 18.037 117.94 18.2094L136.574 61.3772C136.707 61.6859 136.478 62.0288 136.138 62.0288H130.775C130.583 62.0288 130.41 61.9142 130.337 61.7387L124.804 48.44C124.731 48.2645 124.558 48.15 124.366 48.15H110.583C110.259 48.15 110.03 47.8349 110.135 47.5314L111.404 43.841C111.47 43.6513 111.65 43.5237 111.853 43.5237H122.041C122.379 43.5237 122.608 43.1855 122.479 42.8775L114.855 24.5917C114.694 24.2049 114.139 24.2055 113.979 24.5926L98.5885 61.7381Z" fill="black"/>
<path d="M191.709 60.0876C191.501 60.0345 191.357 59.8487 191.357 59.6367V55.4162C191.357 55.0929 191.681 54.8668 191.991 54.9701C196.494 56.4704 201.339 57.2205 206.525 57.2205C214.202 57.2205 218.041 54.4447 218.041 48.8932C218.041 44.1642 215.212 41.7996 209.552 41.7996H203.81C194.468 41.7996 189.797 37.7902 189.797 29.7714C189.797 21.3413 195.779 17.1263 207.742 17.1263C212.809 17.1263 217.531 17.7117 221.908 18.8826C222.113 18.9375 222.254 19.122 222.254 19.332V23.5464C222.254 23.8727 221.925 24.099 221.613 23.9907C217.32 22.4986 212.696 21.7525 207.742 21.7525C199.627 21.7525 195.57 24.4255 195.57 29.7714C195.57 34.5004 198.317 36.8649 203.81 36.8649H209.552C219.06 36.8649 223.815 40.8744 223.815 48.8932C223.815 57.5289 218.051 61.8467 206.525 61.8467C201.23 61.8467 196.291 61.2604 191.709 60.0876Z" fill="black"/>
<path fill-rule="evenodd" clip-rule="evenodd" d="M189.462 59.616V55.3954C189.462 53.769 191.079 52.6706 192.595 53.1756C196.886 54.6052 201.524 55.3279 206.524 55.3279C210.187 55.3279 212.592 54.6557 214.042 53.6073C215.382 52.6386 216.145 51.1739 216.145 48.8725C216.145 46.8864 215.566 45.7102 214.694 44.9816C213.762 44.2021 212.159 43.6507 209.551 43.6507H203.808C198.906 43.6507 194.875 42.6043 192.057 40.185C189.187 37.7219 187.901 34.1226 187.901 29.7506C187.901 25.0423 189.607 21.2617 193.182 18.7427C196.639 16.3068 201.591 15.2336 207.741 15.2336C212.956 15.2336 217.846 15.8362 222.401 17.0551C223.441 17.3332 224.147 18.2649 224.147 19.3112V23.5256C224.147 25.1679 222.503 26.2637 220.983 25.7358C216.909 24.3198 212.5 23.6036 207.741 23.6036C203.834 23.6036 201.235 24.2578 199.662 25.2939C198.225 26.2408 197.463 27.6229 197.463 29.7506C197.463 31.7543 198.033 32.9361 198.873 33.6594C199.763 34.4258 201.295 34.9723 203.808 34.9723H209.551C214.53 34.9723 218.618 36.0159 221.477 38.4274C224.394 40.8875 225.707 44.4901 225.707 48.8725C225.707 53.6395 224.089 57.4914 220.635 60.0793C217.28 62.5932 212.472 63.6981 206.524 63.6981C201.087 63.6981 195.987 63.0958 191.233 61.8789C190.181 61.6098 189.462 60.6725 189.462 59.616ZM191.356 59.616C191.356 59.828 191.5 60.0137 191.708 60.0669C196.29 61.2396 201.229 61.826 206.524 61.826C218.05 61.826 223.813 57.5081 223.813 48.8725C223.813 40.8536 219.059 36.8442 209.551 36.8442H203.808C198.315 36.8442 195.569 34.4797 195.569 29.7506C195.569 24.4047 199.626 21.7318 207.741 21.7318C212.695 21.7318 217.318 22.4778 221.612 23.97C221.923 24.0782 222.253 23.8519 222.253 23.5256V19.3112C222.253 19.1012 222.111 18.9167 221.906 18.8619C217.53 17.6909 212.808 17.1055 207.741 17.1055C195.777 17.1055 189.795 21.3205 189.795 29.7506C189.795 37.7694 194.466 41.7789 203.808 41.7789H209.551C215.21 41.7789 218.039 44.1434 218.039 48.8725C218.039 54.424 214.201 57.1997 206.524 57.1997C201.337 57.1997 196.493 56.4496 191.99 54.9493C191.68 54.8461 191.356 55.0721 191.356 55.3954V59.616Z" fill="black"/>
<path d="M355.417 60.5177C355.209 60.4646 355.065 60.2789 355.065 60.0669V55.8463C355.065 55.523 355.389 55.2969 355.699 55.4002C360.202 56.9005 365.046 57.6506 370.232 57.6506C377.91 57.6506 381.749 54.8749 381.749 49.3234C381.749 44.5943 378.919 42.2298 373.26 42.2298H367.518C358.176 42.2298 353.505 38.2203 353.505 30.2015C353.505 21.7714 359.486 17.5564 371.45 17.5564C376.517 17.5564 381.239 18.1418 385.616 19.3127C385.821 19.3676 385.962 19.5521 385.962 19.7621V23.9765C385.962 24.3028 385.633 24.5291 385.321 24.4209C381.028 22.9287 376.404 22.1826 371.45 22.1826C363.335 22.1826 359.278 24.8556 359.278 30.2015C359.278 34.9306 362.025 37.2951 367.518 37.2951H373.26C382.768 37.2951 387.523 41.3045 387.523 49.3234C387.523 57.959 381.759 62.2771 370.232 62.2771C364.938 62.2771 359.999 61.6905 355.417 60.5177Z" fill="black"/>
<path fill-rule="evenodd" clip-rule="evenodd" d="M353.169 60.0461V55.8256C353.169 54.1991 354.787 53.1007 356.302 53.6058C360.593 55.0354 365.232 55.758 370.231 55.758C373.895 55.758 376.3 55.0858 377.75 54.0374C379.089 53.0687 379.853 51.6041 379.853 49.3026C379.853 47.3166 379.274 46.1404 378.402 45.4118C377.469 44.6323 375.866 44.0809 373.258 44.0809H367.516C362.613 44.0809 358.583 43.0345 355.764 40.6151C352.895 38.152 351.609 34.5528 351.609 30.1807C351.609 25.4724 353.315 21.6918 356.889 19.1728C360.347 16.7369 365.298 15.6638 371.448 15.6638C376.663 15.6638 381.553 16.2664 386.109 17.4852C387.148 17.7634 387.854 18.695 387.854 19.7414V23.9558C387.854 25.598 386.21 26.6939 384.691 26.166C380.617 24.7499 376.207 24.0337 371.448 24.0337C367.542 24.0337 364.943 24.6879 363.37 25.7241C361.933 26.6709 361.171 28.0531 361.171 30.1807C361.171 32.1844 361.74 33.3663 362.581 34.0896C363.471 34.8559 365.002 35.4025 367.516 35.4025H373.258C378.237 35.4025 382.325 36.446 385.185 38.8575C388.102 41.3176 389.415 44.9202 389.415 49.3026C389.415 54.0697 387.797 57.9215 384.343 60.5094C380.988 63.0233 376.18 64.1282 370.231 64.1282C364.795 64.1282 359.695 63.5259 354.94 62.3092C353.889 62.0399 353.169 61.1026 353.169 60.0461ZM355.063 60.0461C355.063 60.2581 355.207 60.4439 355.415 60.497C359.998 61.6698 364.936 62.2564 370.231 62.2564C381.758 62.2564 387.521 57.9383 387.521 49.3026C387.521 41.2838 382.767 37.2743 373.258 37.2743H367.516C362.023 37.2743 359.276 34.9098 359.276 30.1807C359.276 24.8348 363.334 22.1619 371.448 22.1619C376.402 22.1619 381.026 22.908 385.319 24.4001C385.631 24.5084 385.96 24.282 385.96 23.9558V19.7414C385.96 19.5314 385.819 19.3469 385.614 19.292C381.238 18.1211 376.516 17.5356 371.448 17.5356C359.485 17.5356 353.503 21.7507 353.503 30.1807C353.503 38.1996 358.174 42.209 367.516 42.209H373.258C378.917 42.209 381.747 44.5736 381.747 49.3026C381.747 54.8541 377.908 57.6299 370.231 57.6299C365.045 57.6299 360.2 56.8798 355.697 55.3795C355.387 55.2762 355.063 55.5023 355.063 55.8256V60.0461Z" fill="black"/>
<path d="M315.214 62.0288C314.952 62.0288 314.74 61.8193 314.74 61.5608V18.393C314.74 18.1346 314.952 17.9251 315.214 17.9251H333.778C342.267 17.9251 346.511 21.4513 346.511 28.5038C346.511 34.0976 342.564 38.2739 334.671 41.0329C334.369 41.1384 334.251 41.5018 334.439 41.7574L348.834 61.2853C349.062 61.5946 348.838 62.0288 348.452 62.0288H342.012C341.859 62.0288 341.715 61.9551 341.626 61.8311L327.654 42.319C327.598 42.24 327.567 42.1455 327.567 42.0487V38.8653C327.567 38.6351 327.739 38.439 327.969 38.4008C336.232 37.0262 340.363 33.8094 340.363 28.7505C340.363 24.6794 337.991 22.6439 333.247 22.6439H320.987C320.726 22.6439 320.514 22.8534 320.514 23.1118V61.5608C320.514 61.8193 320.302 62.0288 320.04 62.0288H315.214Z" fill="black"/>
<path fill-rule="evenodd" clip-rule="evenodd" d="M342.016 62.0818C341.862 62.0818 341.718 62.0081 341.629 61.8841L327.658 42.372C327.601 42.293 327.571 42.1985 327.571 42.1017V38.9183C327.571 38.6881 327.743 38.492 327.973 38.4538C336.235 37.0792 340.366 33.8624 340.366 28.8035C340.366 24.7324 337.995 22.6969 333.251 22.6969H320.991C320.73 22.6969 320.518 22.9064 320.518 23.1648V61.6138C320.518 61.8723 320.306 62.0818 320.044 62.0818H315.218C314.956 62.0818 314.744 61.8723 314.744 61.6138V18.446C314.744 18.1876 314.956 17.9781 315.218 17.9781H333.782C342.271 17.9781 346.515 21.5043 346.515 28.5568C346.515 34.1505 342.568 38.3269 334.675 41.0859C334.373 41.1914 334.255 41.5548 334.443 41.8104L348.838 61.3383C349.066 61.6476 348.842 62.0818 348.455 62.0818H342.016ZM312.85 61.6138V18.446C312.85 17.1538 313.91 16.1062 315.218 16.1062H333.782C338.246 16.1062 341.947 17.0266 344.551 19.1899C347.218 21.4056 348.409 24.6486 348.409 28.5568C348.409 31.8392 347.232 34.7354 344.939 37.162C343.017 39.1957 340.358 40.8528 337.065 42.1884L350.369 60.2361C351.509 61.7824 350.391 63.9538 348.455 63.9538H342.016C341.248 63.9538 340.527 63.5851 340.083 62.9655L326.112 43.4532C325.829 43.0581 325.677 42.5858 325.677 42.1017V38.9183C325.677 37.7496 326.542 36.7937 327.658 36.6079C331.643 35.9449 334.386 34.8716 336.096 33.54C337.72 32.2752 338.472 30.7414 338.472 28.8035C338.472 27.1307 337.998 26.1962 337.346 25.6368C336.643 25.0336 335.392 24.5687 333.251 24.5687H322.412V61.6138C322.412 62.906 321.352 63.9538 320.044 63.9538H315.218C313.91 63.9538 312.85 62.906 312.85 61.6138Z" fill="black"/>
<path d="M268.073 61.7381C268 61.9139 267.827 62.0288 267.635 62.0288H262.676C262.337 62.0288 262.108 61.6866 262.24 61.3779L280.782 18.2102C280.856 18.0373 281.028 17.9251 281.218 17.9251H286.989C287.179 17.9251 287.35 18.037 287.425 18.2094L306.058 61.3772C306.192 61.6859 305.963 62.0288 305.623 62.0288H300.259C300.067 62.0288 299.894 61.9142 299.821 61.7387L294.289 48.44C294.216 48.2645 294.043 48.15 293.851 48.15H280.067C279.743 48.15 279.515 47.8349 279.619 47.5314L280.889 43.841C280.954 43.6513 281.134 43.5237 281.337 43.5237H291.526C291.863 43.5237 292.092 43.1855 291.964 42.8775L284.34 24.5917C284.179 24.2049 283.624 24.2055 283.464 24.5926L268.073 61.7381Z" fill="black"/>
<path fill-rule="evenodd" clip-rule="evenodd" d="M300.258 62.0818C300.066 62.0818 299.893 61.9672 299.82 61.7917L294.287 48.493C294.214 48.3175 294.042 48.203 293.849 48.203H280.066C279.742 48.203 279.513 47.8879 279.618 47.5844L280.887 43.894C280.953 43.7043 281.133 43.5767 281.336 43.5767H291.524C291.861 43.5767 292.091 43.2385 291.962 42.9305L284.338 24.6447C284.177 24.2579 283.622 24.2585 283.462 24.6456L268.071 61.7911C267.998 61.9669 267.825 62.0818 267.633 62.0818H262.674C262.335 62.0818 262.106 61.7396 262.238 61.4309L280.78 18.2632C280.855 18.0903 281.026 17.9781 281.216 17.9781H286.988C287.178 17.9781 287.349 18.09 287.423 18.2624L306.057 61.4302C306.19 61.7389 305.961 62.0818 305.621 62.0818H300.258ZM283.905 28.5179L269.824 62.5003C269.46 63.3796 268.594 63.9538 267.633 63.9538H262.674C260.978 63.9538 259.832 62.2425 260.495 60.6996L279.037 17.5318C279.408 16.6675 280.266 16.1062 281.216 16.1062H286.988C287.936 16.1062 288.793 16.6657 289.166 17.528L307.799 60.6957C308.465 62.2392 307.319 63.9538 305.621 63.9538H300.258C299.298 63.9538 298.433 63.381 298.068 62.5036L292.897 50.0748H280.066C278.444 50.0748 277.302 48.4995 277.824 46.9818L279.094 43.2915C279.42 42.3429 280.322 41.7048 281.336 41.7048H289.403L283.905 28.5179Z" fill="black"/>
<path d="M261.537 17.9251C261.798 17.9251 262.01 18.1346 262.01 18.393V22.0834C262.01 22.3418 261.798 22.5514 261.537 22.5514H248.44C248.178 22.5514 247.966 22.7609 247.966 23.0193V61.5608C247.966 61.8193 247.754 62.0288 247.493 62.0288H242.666C242.404 62.0288 242.192 61.8193 242.192 61.5608V23.0193C242.192 22.7609 241.98 22.5514 241.719 22.5514H228.622C228.36 22.5514 228.148 22.3418 228.148 22.0834V18.393C228.148 18.1346 228.36 17.9251 228.622 17.9251H261.537Z" fill="black"/>
<path fill-rule="evenodd" clip-rule="evenodd" d="M263.901 18.446V22.1364C263.901 23.4286 262.84 24.4762 261.533 24.4762H249.857V61.6138C249.857 62.906 248.796 63.9538 247.489 63.9538H242.662C241.355 63.9538 240.294 62.906 240.294 61.6138V24.4762H228.618C227.31 24.4762 226.25 23.4286 226.25 22.1364V18.446C226.25 17.1538 227.31 16.1062 228.618 16.1062H261.533C262.84 16.1062 263.901 17.1538 263.901 18.446ZM262.007 18.446C262.007 18.1876 261.794 17.9781 261.533 17.9781H228.618C228.357 17.9781 228.144 18.1876 228.144 18.446V22.1364C228.144 22.3948 228.357 22.6043 228.618 22.6043H241.715C241.976 22.6043 242.189 22.8138 242.189 23.0723V61.6138C242.189 61.8723 242.401 62.0818 242.662 62.0818H247.489C247.75 62.0818 247.962 61.8723 247.962 61.6138V23.0723C247.962 22.8138 248.174 22.6043 248.436 22.6043H261.533C261.794 22.6043 262.007 22.3948 262.007 22.1364V18.446Z" fill="black"/>
</g>
<g clip-path="url(#clip1_517_711)">
<path fill-rule="evenodd" clip-rule="evenodd" d="M13.3014 -0.0083313C6.18806 -0.0083313 0.421509 5.69555 0.421509 12.7316V63.8367C0.421509 70.8728 6.18806 76.5766 13.3014 76.5766H64.1266C71.2401 76.5766 77.0065 70.8728 77.0065 63.8367V12.7316C77.0065 5.69555 71.2401 -0.0083313 64.1266 -0.0083313H13.3014ZM34.2704 28.2015L19.1132 64.5549C18.7788 65.3569 17.9891 65.8717 17.1224 65.8717H11.7417C10.2165 65.8717 9.14769 64.3302 9.76161 62.91L29.408 17.4571C29.7488 16.6687 30.5313 16.1655 31.3881 16.1655H37.572C38.4274 16.1655 39.209 16.6671 39.5506 17.4536L59.2939 62.9066C59.9112 64.3272 58.8425 65.8717 57.3154 65.8717H51.5069C50.6415 65.8717 49.8522 65.3582 49.5174 64.5574L43.9667 51.2989H30.1253C28.6664 51.2989 27.6045 49.8808 28.088 48.4844L29.4735 44.4824C29.7735 43.6161 30.5966 43.0439 31.5107 43.0439H40.4979L34.2704 28.2015ZM51.2527 29.6923C51.154 30.2481 51.7084 30.6835 52.1973 30.435L57.7518 27.6045L63.3106 30.435C63.7991 30.6835 64.3539 30.2481 64.2548 29.6923L63.2043 23.7578L67.6628 19.5472C68.0806 19.1532 67.864 18.4331 67.3058 18.3553L61.1054 17.4821L58.3407 12.0532C58.0914 11.5639 57.4166 11.5639 57.1672 12.0532L54.4025 17.4821L48.2017 18.3553C47.6434 18.4331 47.4273 19.1532 47.8434 19.5472L52.3032 23.7578L51.2527 29.6923Z" fill="black"/>
</g>
<defs>
<clipPath id="clip0_517_711">
<rect width="348.522" height="49.1359" fill="white" transform="translate(92.4778 15.2364)"/>
</clipPath>
<clipPath id="clip1_517_711">
<rect width="79.9888" height="79.9888" fill="white"/>
</clipPath>
</defs>
</svg>
